<svg id="Layer_3" enable-background="new 0 0 64 64" height="512" viewBox="0 0 64 64" width="512" xmlns="http://www.w3.org/2000/svg"><g><g><path d="m48.999 28.999h1.999v3.999h-1.999z" fill="#cbc3b6"/></g><g><path d="m60.805 41.816-10.805-7.594-10.733 7.593-1.155-1.632 11.31-8c.345-.244.808-.244 1.152-.002l11.381 8z" fill="#b3b3b3"/></g><path d="m38 40h24v12h-24z" fill="#c66b60"/><path d="m38 49h24v3h-24z" fill="#f7d881"/><g><path d="m2.072 7.498h23.854v2h-23.854z" fill="#e7e4dd" transform="matrix(.838 -.545 .545 .838 -2.37 9.009)"/></g><g><path d="m39-9.089h1.999v34.176h-1.999z" fill="#e7e4dd" transform="matrix(.351 -.936 .936 .351 18.466 42.643)"/></g><g><path d="m36.916-.018h2v21.032h-2z" fill="#e7e4dd" transform="matrix(.333 -.943 .943 .333 15.397 42.759)"/></g><path d="m16 58h16v4h-16z" fill="#666"/><path d="m16 58 4-6h8l4 6" fill="#f2c351"/><path d="m20 52-.009-5h8l.009 5" fill="#cbc3b6"/><path d="m27.999 21.584v-3.584h-1.999v1.584l-.585-.585.292-.292-1.415-1.415-.292.292-.293-.293-1.415 1.415.293.293-.586.586v-1.585h-1.999v3.583.002 2.828.002 5.167.003 2.827.003 5.167.003 2.827.003 5.167 1.416.002h1.412l.002-.002h.585v-.585l2-2 2.001 2.002v.583h.583l.002.002h1.415v-1.415l-.001-.001v-5.17l.001.001v-.002-2.828-.002l-.001.001v-5.17l.001.001v-.002-2.828-.002l-.001.001v-5.17l.001.001v-.002zm-3.999-1.17 2 2v1.168l-2.001 2.001-2-2v-1.169zm-2.001 6 .585.585-.585.585zm4.001 5.169-2.001 2.001-2-2v-1.171l2-2 2.001 2.002zm0 8-2.001 2.001-2-2v-1.171l2-2 2.001 2.002zm-.586-4.584.586-.586v1.172zm-3.415-.585.585.585-.585.585zm0 9.169v-1.169l.585.585zm3.415-.584.586-.586v1.172zm.586-15.414-.586-.586.586-.586z" fill="#666"/><path d="m9 19v-6h-5c-1.105 0-2 .895-2 2v8h4v-4z" fill="#f2c351"/><path d="m62.555 17.168-6-4.001c-.165-.11-.357-.168-.556-.168h-46.999v2h2.031l-1.666 1.999h-.365l-.001 2h.001v.002h1.299l.002-.002h7.396l.001.001-.001.001h.001 2.602.001l-.001-.001.001-.001h7.395l.001.001v.001h.001 2.602.001v-.001-.001h7.396.001 2.602 7.396v.001h.002 2.602.002 11.697c.441 0 .83-.289.958-.711.127-.421-.036-.876-.402-1.12zm-13.921-.169-1.667-2h4.064l-1.667 2zm-10.001 0-1.666-2h4.064l-1.666 2zm-10-.001-1.666-1.999h4.064l-1.666 1.999zm-10 0-1.666-1.999h4.064l-1.666 1.999zm-6.665 0 1.666-1.999h.729l1.666 1.999zm10 0 1.666-1.999h.729l1.666 1.999zm10 0 1.666-1.999h.729l1.666 2zm11.667-1.999h.729l1.667 2h-4.063zm8.333 2 1.667-2h2.062l3.001 2z" fill="#808080"/><path d="m28.78 6.374-4-5c-.379-.475-1.183-.473-1.562 0l-4 5c-.141.177-.218.397-.218.624l-.001 6 2 .001v-5.649l2.001-2.5-.001 8.149 1.999.001.002-8.151 2 2.5-.001 5.648 2 .001.002-6c-.001-.227-.079-.447-.221-.624z" fill="#666"/><g><path d="m47 18.999h2v6h-2z" fill="#cbc3b6"/></g><g><path d="m51 18.999h2v6h-2z" fill="#cbc3b6"/></g><path d="m54 29h-8c-.552 0-1-.448-1-1v-2c0-.552.448-1 1-1h8c.552 0 1 .448 1 1v2c0 .552-.448 1-1 1z" fill="#f2c351"/><g><path d="m40.999 41.999h1.999v6.999h-1.999z" fill="#e47c6e"/></g><g><path d="m44.999 41.999h1.999v6.999h-1.999z" fill="#e47c6e"/></g><g><path d="m48.999 41.999h1.999v6.999h-1.999z" fill="#e47c6e"/></g><g><path d="m52.999 41.999h1.999v6.999h-1.999z" fill="#e47c6e"/></g><g><path d="m56.999 41.999h1.999v6.999h-1.999z" fill="#e47c6e"/></g><g fill="#f7d881"><path d="m7.686 13h-3.686c-1.105 0-2 .895-2 2v4.446c2.838-1.037 5.006-3.455 5.686-6.446z"/><path d="m25.099 52h-5.099l-4 6h6.12c1.584-1.583 2.656-3.672 2.979-6z"/><path d="m46 25c-.552 0-1 .448-1 1v2c0 .552.448 1 1 1h2.335c1.184-1.042 2.053-2.426 2.46-4z"/></g></g></svg>