<?xml version="1.0" encoding="UTF-8"?>
<svg xmlns="http://www.w3.org/2000/svg" xmlns:xlink="http://www.w3.org/1999/xlink" width="96pt" height="96pt" viewBox="0 0 96 96" version="1.1">
<g id="surface32322884">
<path style=" stroke:none;fill-rule:nonzero;fill:rgb(100%,100%,100%);fill-opacity:1;" d="M 73 12 L 23 12 C 16.9375 12 12 16.9375 12 23 L 12 73 C 12 79.0625 16.9375 84 23 84 L 73 84 C 79.0625 84 84 79.0625 84 73 L 84 23 C 84 16.9375 79.0625 12 73 12 Z M 36 68 C 36 69.105469 35.105469 70 34 70 L 28 70 C 26.894531 70 26 69.105469 26 68 L 26 42 C 26 40.894531 26.894531 40 28 40 L 34 40 C 35.105469 40 36 40.894531 36 42 Z M 31 36 C 28.238281 36 26 33.761719 26 31 C 26 28.238281 28.238281 26 31 26 C 33.761719 26 36 28.238281 36 31 C 36 33.761719 33.761719 36 31 36 Z M 70 68 C 70 69.105469 69.105469 70 68 70 L 62 70 C 60.894531 70 60 69.105469 60 68 L 60 53 C 60 50.242188 57.757812 48 55 48 C 52.242188 48 50 50.242188 50 53 L 50 68 C 50 69.105469 49.105469 70 48 70 L 42 70 C 40.894531 70 40 69.105469 40 68 L 40 42 C 40 40.894531 40.894531 40 42 40 L 48 40 C 49.105469 40 50 40.894531 50 42 L 50 43.082031 C 52.125 41.171875 54.925781 40 58 40 C 64.617188 40 70 45.382812 70 52 Z M 70 68 "/>
</g>
</svg>
